# xmcd
# 
# Track frame offsets:
#     150
#     14864
#     28930
#     44114
#     61839
#     80776
#     100690
#     116097
#     135958
#     156956
#     173157
#     191009
#     210515
#     226708
#     241183
#     262437
#     279062
#     296571
#     315549
#     328505
#     343298
# 
# Disc length: 4797
# 
# Revision: 5
# Processed by: cddbd v1.5.2PL0 Copyright (c) Steve Scherf et al.
# Submitted via: fre:ac v1.0.31
# 
DISCID=3812bb15
DTITLE=Various Artist - Bravo Hits 67 - CD1
DYEAR=2009
DGENRE=Pop
TTITLE0=Tokio Hotel - Automatic
TTITLE1=Shakira - She Wolf
TTITLE2=Marit Larsen - If A Song Could Get Me You
TTITLE3=Nena - Wir sind wahr
TTITLE4=Mark Medlock - Baby Blue
TTITLE5=A-ha! - Shadowside
TTITLE6=P!nk - Funhouse
TTITLE7=Söhne Mannheims - Ich wollt nur deine Stimme hörn
TTITLE8=Kelly Clarkson - Already Gone
TTITLE9=Colbie Caillat - Fallin' For You
TTITLE10=Mika - We Are Golden
TTITLE11=Daniel Merriweather - Impossible
TTITLE12=Stefanie Heinzmann - No One (Can Ever Change My Mind)
TTITLE13=Ingrid Michaelson - Maybe
TTITLE14=Rosenstolz - Ich bin mein Haus
TTITLE15=Livingston - Broken
TTITLE16=Selig - Ich fall in deine Arme
TTITLE17=Sportfreunde Stiller - Ich war noch niemals in New York
TTITLE18=Paloma Faith - Stone Cold Sober
TTITLE19=Pixie Lott - Mama Do (Uh Oh, Uh Oh)
TTITLE20=Melanie Fiona - Give It To Me Right
EXTD=
EXTT0=
EXTT1=
EXTT2=
EXTT3=
EXTT4=
EXTT5=
EXTT6=
EXTT7=
EXTT8=
EXTT9=
EXTT10=
EXTT11=
EXTT12=
EXTT13=
EXTT14=
EXTT15=
EXTT16=
EXTT17=
EXTT18=
EXTT19=
EXTT20=
PLAYORDER=
